<svg width="172" height="100" viewBox="0 0 172 100" fill="none" xmlns="http://www.w3.org/2000/svg">
<circle cx="87" cy="50" r="48.5" stroke="#23B50B" stroke-width="3"/>
<circle cx="149.5" cy="15.5" r="5" stroke="#23B50B" stroke-width="3"/>
<path d="M129 29C126.274 31.1296 124.064 34.0674 121.222 36C118.956 37.541 115.912 37.1597 113.5 38.5C109.801 40.5553 104.398 42 100 42C93.1955 42 74.4794 49.035 83.2222 57.7778C89.586 64.1416 99.1414 64 108 64C112.711 64 117.18 64.1628 121.444 62.9444C123.91 62.24 132.047 57.9068 133 56" stroke="#23B50B" stroke-width="3" stroke-linecap="round"/>
<path d="M38 50C42.0273 55.3161 45.3232 57.8586 50.2222 61.7778C52.9659 63.9727 60.7283 65.3818 61 70C61.275 74.6745 63.7456 78.8662 58.4444 81.2222C55.5448 82.511 48.6331 83.2661 47 80" stroke="#23B50B" stroke-width="3" stroke-linecap="round"/>
<path d="M13.344 55.336H16.896V62.152C15.984 62.84 14.928 63.368 13.728 63.736C12.528 64.104 11.32 64.288 10.104 64.288C8.36 64.288 6.792 63.92 5.4 63.184C4.008 62.432 2.912 61.4 2.112 60.088C1.328 58.76 0.936 57.264 0.936 55.6C0.936 53.936 1.328 52.448 2.112 51.136C2.912 49.808 4.016 48.776 5.424 48.04C6.832 47.288 8.416 46.912 10.176 46.912C11.648 46.912 12.984 47.16 14.184 47.656C15.384 48.152 16.392 48.872 17.208 49.816L14.712 52.12C13.512 50.856 12.064 50.224 10.368 50.224C9.296 50.224 8.344 50.448 7.512 50.896C6.68 51.344 6.032 51.976 5.568 52.792C5.104 53.608 4.872 54.544 4.872 55.6C4.872 56.64 5.104 57.568 5.568 58.384C6.032 59.2 6.672 59.84 7.488 60.304C8.32 60.752 9.264 60.976 10.32 60.976C11.44 60.976 12.448 60.736 13.344 60.256V55.336ZM33.5156 60.88V64H20.5076V47.2H33.2036V50.32H24.3716V53.968H32.1716V56.992H24.3716V60.88H33.5156ZM44.6983 64.288C42.9543 64.288 41.3783 63.912 39.9703 63.16C38.5783 62.408 37.4823 61.376 36.6823 60.064C35.8983 58.736 35.5063 57.248 35.5063 55.6C35.5063 53.952 35.8983 52.472 36.6823 51.16C37.4823 49.832 38.5783 48.792 39.9703 48.04C41.3783 47.288 42.9543 46.912 44.6983 46.912C46.4423 46.912 48.0103 47.288 49.4023 48.04C50.7943 48.792 51.8903 49.832 52.6903 51.16C53.4903 52.472 53.8903 53.952 53.8903 55.6C53.8903 57.248 53.4903 58.736 52.6903 60.064C51.8903 61.376 50.7943 62.408 49.4023 63.16C48.0103 63.912 46.4423 64.288 44.6983 64.288ZM44.6983 60.976C45.6903 60.976 46.5863 60.752 47.3863 60.304C48.1863 59.84 48.8103 59.2 49.2583 58.384C49.7223 57.568 49.9543 56.64 49.9543 55.6C49.9543 54.56 49.7223 53.632 49.2583 52.816C48.8103 52 48.1863 51.368 47.3863 50.92C46.5863 50.456 45.6903 50.224 44.6983 50.224C43.7063 50.224 42.8103 50.456 42.0103 50.92C41.2103 51.368 40.5783 52 40.1143 52.816C39.6663 53.632 39.4423 54.56 39.4423 55.6C39.4423 56.64 39.6663 57.568 40.1143 58.384C40.5783 59.2 41.2103 59.84 42.0103 60.304C42.8103 60.752 43.7063 60.976 44.6983 60.976ZM72.1003 64L72.0763 53.92L67.1323 62.224H65.3803L60.4603 54.136V64H56.8123V47.2H60.0283L66.3163 57.64L72.5083 47.2H75.7003L75.7483 64H72.1003ZM92.7422 60.88V64H79.7342V47.2H92.4302V50.32H83.5982V53.968H91.3982V56.992H83.5982V60.88H92.7422ZM111.124 64L111.1 53.92L106.156 62.224H104.404L99.4838 54.136V64H95.8358V47.2H99.0518L105.34 57.64L111.532 47.2H114.724L114.772 64H111.124ZM126.894 64.288C125.15 64.288 123.574 63.912 122.166 63.16C120.774 62.408 119.678 61.376 118.878 60.064C118.094 58.736 117.702 57.248 117.702 55.6C117.702 53.952 118.094 52.472 118.878 51.16C119.678 49.832 120.774 48.792 122.166 48.04C123.574 47.288 125.15 46.912 126.894 46.912C128.638 46.912 130.206 47.288 131.598 48.04C132.99 48.792 134.086 49.832 134.886 51.16C135.686 52.472 136.086 53.952 136.086 55.6C136.086 57.248 135.686 58.736 134.886 60.064C134.086 61.376 132.99 62.408 131.598 63.16C130.206 63.912 128.638 64.288 126.894 64.288ZM126.894 60.976C127.886 60.976 128.782 60.752 129.582 60.304C130.382 59.84 131.006 59.2 131.454 58.384C131.918 57.568 132.15 56.64 132.15 55.6C132.15 54.56 131.918 53.632 131.454 52.816C131.006 52 130.382 51.368 129.582 50.92C128.782 50.456 127.886 50.224 126.894 50.224C125.902 50.224 125.006 50.456 124.206 50.92C123.406 51.368 122.774 52 122.31 52.816C121.862 53.632 121.638 54.56 121.638 55.6C121.638 56.64 121.862 57.568 122.31 58.384C122.774 59.2 123.406 59.84 124.206 60.304C125.006 60.752 125.902 60.976 126.894 60.976ZM149.712 64L146.472 59.32H146.28H142.896V64H139.008V47.2H146.28C147.768 47.2 149.056 47.448 150.144 47.944C151.248 48.44 152.096 49.144 152.688 50.056C153.28 50.968 153.576 52.048 153.576 53.296C153.576 54.544 153.272 55.624 152.664 56.536C152.072 57.432 151.224 58.12 150.12 58.6L153.888 64H149.712ZM149.64 53.296C149.64 52.352 149.336 51.632 148.728 51.136C148.12 50.624 147.232 50.368 146.064 50.368H142.896V56.224H146.064C147.232 56.224 148.12 55.968 148.728 55.456C149.336 54.944 149.64 54.224 149.64 53.296ZM164.486 58.048V64H160.598V58L154.094 47.2H158.222L162.71 54.664L167.198 47.2H171.014L164.486 58.048Z" fill="#6B6262"/>
</svg>
